# xmcd CD database file
#
# Track frame offsets:
#	150
#	12072
#	27107
#	37782
#	52414
#	63277
#	72490
#	86895
#	102432
#	112282
#	122092
#	140445
#	154325
#	163420
#	180235
#	192852
#	202452
#	216205
#	227707
#	243465
#	253007
#	263042
#	274955
#	290005
#
# Disc length: 4062 seconds
#
# Revision: 1
# Processed by: cddbd v1.5.2PL0 Copyright (c) Steve Scherf et al.
# Submitted via: jetAudio 7
#
DISCID=780fdc18
DTITLE=Pisne dlouhych cest
DYEAR=2003
DGENRE=Country
TTITLE0=Rosa na kolejich
TTITLE1=Uz mi ma holka mava
TTITLE2=Kamarad
TTITLE3=Mississippi blues
TTITLE4=Placek v oudoli
TTITLE5=Ze mas modry oci
TTITLE6=Nelituj
TTITLE7=Cesta zpatky
TTITLE8=Buraky
TTITLE9=Tvuj cas
TTITLE10=Rano bylo stejny
TTITLE11=Co nevidet se sejdem
TTITLE12=Tramp
TTITLE13=Rocnik
TTITLE14=Samota
TTITLE15=Pisen vecnych tulaku
TTITLE16=Toulavej
TTITLE17=Prazdny schranky
TTITLE18=Vitr od jihu
TTITLE19=Ja jsem tak linej
TTITLE20=Nocni mesto
TTITLE21=Z maleho nadrazi
TTITLE22=Mam srdce kovboje
TTITLE23=Posledni vandr
EXTD=
EXTT0=
EXTT1=
EXTT2=
EXTT3=
EXTT4=
EXTT5=
EXTT6=
EXTT7=
EXTT8=
EXTT9=
EXTT10=
EXTT11=
EXTT12=
EXTT13=
EXTT14=
EXTT15=
EXTT16=
EXTT17=
EXTT18=
EXTT19=
EXTT20=
EXTT21=
EXTT22=
EXTT23=
PLAYORDER=
